<svg fill="none" height="235" viewBox="0 0 380 235" width="380" xmlns="http://www.w3.org/2000/svg"><g fill="#f0f0ff"><path d="m65 117 62.718-51.9615v103.9235z"/><path d="m190.436 117 62.064-51.9615v103.9235z"/><path d="m190.436 117-62.718 51.962v-103.9235z"/></g><path d="m315 117-62.718 51.962v-103.9235z" fill="#5050e1"/><path d="m166.681 62.5145h-18.465v-13.015c0-1.3799-1.12-2.4995-2.5-2.4995h-90.2504c-1.38 0-2.4996 1.1196-2.4996 2.4995v13.015h-18.4665c-1.3799 0-2.4995 1.1196-2.4995 2.4995v31.6133c0 4.6437.8277 9.1067 2.4635 13.2637 5.5968 14.3 16.1123 23.509 27.6728 24.419 7.8462 13.16 18.9314 22.092 31.0865 24.605.0081.001.0151.005.0232.008 1.5916.331 3.2146.545 4.8444.658v14.252c-1.6113.087-3.2063.226-4.7316.478-13.7533 2.214-23.3668 10.472-23.4248 20.102-.0012.03-.0082.057-.0082.087 0 1.035.6302 1.923 1.5288 2.304.2977.126.6278.196.9743.196.0046 0 .0104-.001.0162-.001h56.2919c.005 0 .011.001.016.001.347 0 .676-.07.976-.199.898-.38 1.529-1.268 1.529-2.303 0-.03-.009-.057-.009-.087-.058-9.63-9.671-17.889-23.413-20.1-1.53-.254-3.13-.393-4.743-.48v-14.252c1.631-.113 3.253-.326 4.844-.658.008-.001.015-.005.023-.008 12.152-2.514 23.239-11.446 31.087-24.605 11.563-.912 22.076-10.118 27.673-24.416 1.633-4.159 2.463-8.623 2.463-13.2657l.001-31.6104c-.003-1.3823-1.123-2.5007-2.503-2.5007zm-127.5633 45.5505c-1.4056-3.575-2.1183-7.422-2.1183-11.436v-29.1145h15.9647v35.7915c0 6.897 1.2335 13.543 3.6667 19.757.7696 1.967 1.6195 3.855 2.5135 5.694-8.2926-2.156-15.7179-9.687-20.0266-20.692zm86.7893 83.935h-50.6314c1.6451-6.016 9.0763-11.174 18.8897-12.754 4.1051-.68 8.7347-.681 12.8637.001 9.802 1.578 17.233 6.736 18.877 12.754zm-18.98-37.973c-.004 0-.007 0-.012.001-4.136.866-8.5089.866-12.6464 0-.0035 0-.0082 0-.0116-.001-13.7046-2.825-26.0315-15.08-32.9675-32.786-2.2031-5.632-3.3215-11.665-3.3215-17.935v-51.307h85.251v51.307c0 6.27-1.119 12.303-3.322 17.935-6.939 17.704-19.264 29.959-32.97 32.786zm57.256-57.3992c0 4.0152-.714 7.8642-2.118 11.4402-4.309 11.001-11.734 18.535-20.029 20.688.893-1.84 1.744-3.727 2.513-5.693 2.434-6.215 3.667-12.862 3.667-19.757v-35.7891h15.965v29.1121z" fill="#505064"/><path d="m124.21 87.9524-13.905-2.0205-6.217-12.6037c-.661-1.3405-2.003-2.1717-3.498-2.1717-1.4951 0-2.8356.8312-3.4983 2.1729l-6.2164 12.6012-13.9069 2.0206c-1.48.2162-2.6856 1.2335-3.1482 2.6554-.4616 1.4229-.0849 2.9529.987 3.9982l10.0623 9.8082-2.3752 13.847c-.1953 1.138.1163 2.293.8568 3.17 1.1533 1.369 3.2122 1.779 4.8039.943l12.435-6.535 12.437 6.537c.562.297 1.191.452 1.815.452h.001c1.15 0 2.24-.508 2.987-1.395.738-.876 1.052-2.033.857-3.17l-2.376-13.849 10.06-9.8058c1.072-1.0429 1.45-2.5751.989-3.9971-.462-1.423-1.669-2.4414-3.15-2.6576zm-11.801 13.2836c-.922.899-1.342 2.188-1.123 3.453l2.096 12.222-10.975-5.769c-.558-.295-1.187-.449-1.817-.449-.6298 0-1.2576.154-1.8168.448l-10.9748 5.77 2.0962-12.222c.2185-1.265-.2012-2.555-1.1231-3.453l-8.8798-8.6552 12.2769-1.7823c1.2672-.1848 2.3612-.9812 2.9332-2.1333l5.4882-11.1224 5.49 11.1271c.569 1.1464 1.667 1.9439 2.936 2.1287l12.27 1.7823z" fill="#505064"/><path d="m25 57v-31h29" stroke="#ffe6a0" stroke-linecap="round" stroke-linejoin="round" stroke-width="5"/><path d="m15 47v-31h29" stroke="#ffe6a0" stroke-linecap="round" stroke-linejoin="round" stroke-width="5"/></svg>