<svg fill="none" height="235" viewBox="0 0 380 235" width="380" xmlns="http://www.w3.org/2000/svg"><path d="m65 117 62.718-51.9615v103.9235z" fill="#f0f0ff"/><path d="m190.436 117 62.064-51.9615v103.9235z" fill="#5050e1"/><path d="m190.436 117-62.718 51.962v-103.9235z" fill="#f0f0ff"/><path d="m315 117-62.718 51.962v-103.9235z" fill="#f0f0ff"/><path d="m91.6078 116.971c7.3769 0 13.3792-6.001 13.3792-13.379 0-7.3769-6.002-13.3786-13.3792-13.3786-7.377 0-13.379 6.0017-13.379 13.3786-.0013 7.377 6.0004 13.379 13.379 13.379zm0-21.58c4.5211 0 8.1991 3.678 8.1991 8.2 0 4.523-3.678 8.201-8.1991 8.201-4.5212 0-8.1992-3.678-8.1992-8.201 0-4.522 3.678-8.2 8.1992-8.2z" fill="#505064"/><path d="m174.615 107.149c-2.664-6.618-17.541-2.299-26.166.866-12.419 4.517-22.955 8.684-31.955 12.516 2.12-9.082 5.199-22.6323-1.198-32.3739-3.595-5.4697-9.718-9.0227-18.2075-10.5566-10.8962-1.9679-21.3572.9226-30.2534 8.3528-11.9839 10.0109-19.4291 27.2387-19.4291 44.9547 0 12.053 1.4584 21.183 4.6501 29.322-1.7125 1.071-3.658 2.217-5.1535 3.074-4.5685-3.451-11.3613-4.107-16.6453-1.382-4.6726 2.406-8.0331 4.916-10.3569 9.987-1.5575 3.398-3.9085 8.532-4.8348 12.554-.1649.721-.0161 1.48.4142 2.082.4278.604 1.095.996 1.8315 1.074.3609.039.718.057 1.0702.057 1.808 0 3.4796-.468 4.9811-.889 1.3765-.385 2.6736-.758 3.859-.701 1.4273.057 2.8695.229 4.3961.41 5.5566.658 11.8523 1.408 17.0357-4.054 2.1279-2.244 3.2129-5.294 3.2872-8.388 1.6865-1.042 3.8044-2.28 5.6323-3.238 3.1992 4.766 7.196 9.148 12.1771 13.344 10.8641 9.074 22.6496 13.696 34.409 13.696 6.351 0 12.694-1.35 18.877-4.075 19.002-8.376 33.428-28.561 34.297-47.996.3-6.725-.84-12.202-3.387-16.326 1.545-1.035 3.115-2.099 4.712-3.194 5.726-3.453 18.728-12.235 15.96-19.119zm-104.4609-17.2188c7.6821-6.4173 16.6774-8.916 26.0136-7.2294 7.1343 1.2884 11.9753 4.0028 14.7973 8.302 5.241 7.9773 2.455 19.9092.422 28.6232-.29 1.245-.548 2.38-.777 3.456-10.154 4.49-18.0584 8.46-24.1929 11.897-1.1594-6.207-6.6058-10.921-13.1431-10.921-7.377 0-13.379 6.002-13.379 13.379 0 4.957 2.7095 9.355 6.8316 11.665-.2171.25-.413.485-.5705.689-2.1105.64-4.6986 2.771-8.7372 6.364-.3696.329-.7056.628-1.0367.918-2.6103-7.208-3.7958-15.425-3.7958-26.162-.0012-16.222 6.731-31.9235 17.5678-40.9804zm-10.7882 74.4738c-2.1515.612-5.7935 2.642-8.3938 4.189-.1798-.444-.3856-.874-.6138-1.296 2.49-1.443 6.1741-3.648 7.9077-5.029.6634-.526 1.5711-1.332 2.5942-2.24 1.5798-1.406 4.6491-4.135 6.2236-5.019 1.1223 1.381 2.8484 4.74 3.3171 6.458-1.6368.764-5.6386 1.669-7.6995 2.135-1.338.299-2.5235.569-3.3358.802zm11.4431-19.172c-3.3729-1.059-5.735-4.173-5.735-7.795 0-4.523 3.678-8.201 8.2004-8.201 4.5211 0 8.1991 3.678 8.1991 8.201 0 .147-.0335.294-.0409.441-4.8262 2.928-8.2328 5.382-10.6235 7.354zm-25.9107 33.65c-3.2304 3.406-6.917 3.161-12.6657 2.475-1.5575-.185-3.1683-.375-4.7942-.443-1.9927-.077-3.8427.436-5.4687.889-.2493.07-.4948.139-.7378.205 1.0156-2.776 2.3734-5.743 3.3793-7.938 1.7273-3.772 4.056-5.498 8.0207-7.54 1.436-.738 3.0927-1.094 4.7554-1.094 2.779 0 5.5678.992 7.3424 2.826 2.6574 2.747 2.7392 7.909.1686 10.62zm107.2637-33.326c-.775 17.294-14.191 35.989-31.212 43.487-11.132 4.909-28.4723 7.351-47.8715-8.849-4.2421-3.573-7.6944-7.281-10.5045-11.257.4006-.093.8197-.188 1.2674-.287 5.0843-1.151 8.2601-1.997 10.0479-3.261.4961.046 1.0987.082 1.8403.082 3.1088 0 8.462-.601 16.7319-3.287-.558 1.471-.8767 3.058-.8767 4.722 0 7.377 6.0018 13.379 13.3792 13.379 7.377 0 13.379-6.002 13.379-13.379 0-5.363-3.178-9.986-7.744-12.116 3.061-1.46 6.341-3.113 9.848-4.985.324 3.267 1.783 6.076 4.23 7.871 1.779 1.308 3.898 1.973 6.178 1.973 1.238 0 2.524-.196 3.829-.594 3.436-1.045 6.629-3.395 8.995-6.614s3.649-6.973 3.62-10.563c-.021-2.591-.73-4.89-2.009-6.74 1.42-.911 2.864-1.846 4.336-2.812 1.931 3.208 2.786 7.645 2.535 13.229zm-47.195 13.149c4.522 0 8.2 3.678 8.2 8.201 0 4.522-3.678 8.2-8.2 8.2s-8.1996-3.678-8.1996-8.2c0-4.523 3.6796-8.201 8.1996-8.201zm35.938-20.793c.772 1.028 1.201 2.402 1.214 4.009.021 2.482-.906 5.129-2.612 7.454-1.707 2.325-3.956 4.003-6.33 4.726-2.104.64-4.034.426-5.435-.599-1.727-1.267-2.49-3.705-2.08-6.544 4.703-2.634 9.773-5.629 15.243-9.046zm14.952-15.995c-52.393 35.875-74.5539 38.497-80.4332 38.386-.2864-1.138-.8283-2.61-1.8439-4.581-.8829-1.719-1.6728-2.939-2.3623-3.813 4.2396-4.351 20.9842-17.925 79.0074-39.031 8.736-3.203 18.114-4.948 19.584-3.799.64 1.589-5.616 7.788-13.952 12.837z" fill="#505064"/><g stroke="#ffe6a0" stroke-linecap="round" stroke-linejoin="round" stroke-width="5"><path d="m117.615 56.5069-15.5-26.8467-25.115 14.5"/><path d="m121.275 42.8468-15.5-26.8468-25.1148 14.5"/></g></svg>