<svg fill="none" height="235" viewBox="0 0 380 235" width="380" xmlns="http://www.w3.org/2000/svg"><path d="m65 117 62.718-51.9615v103.9235z" fill="#5050e1"/><g fill="#f0f0ff"><path d="m190.436 117 62.064-51.9615v103.9235z"/><path d="m190.436 117-62.718 51.962v-103.9235z"/><path d="m315 117-62.718 51.962v-103.9235z"/></g><path d="m257.241 64.1092c-6.423-6.4212-14.964-9.9583-24.05-9.9583s-17.63 3.5359-24.057 9.9572c-6.428 6.4236-9.968 14.9617-9.965 24.0398.002 9.0734 3.541 17.6021 9.965 24.0141 6.427 6.421 14.971 9.957 24.057 9.957s17.627-3.536 24.048-9.956c6.431-6.414 9.972-14.9417 9.974-24.0151.003-9.0781-3.54-17.6151-9.972-24.0387zm-3.136 44.9178c-5.585 5.584-13.012 8.66-20.914 8.66s-15.332-3.075-20.923-8.66c-5.585-5.576-8.661-12.9893-8.664-20.8768-.002-7.8934 3.076-15.316 8.665-20.901 5.59-5.5839 13.02-8.6595 20.922-8.6595 7.901 0 15.329 3.0754 20.916 8.6604 5.593 5.585 8.674 13.0088 8.672 20.901-.003 7.8843-3.083 15.2989-8.673 20.8759z" fill="#505064"/><path d="m325.96 163.36-36.937-36.901c-.866-.865-2.27-.865-3.136 0l-2.158 2.156-9.683-9.672c6.7-8.826 10.328-19.5355 10.328-30.8031 0-13.6562-5.324-26.4964-14.991-36.1588-9.67-9.6608-22.523-14.9811-36.194-14.9811-13.668.0023-26.522 5.3214-36.193 14.9823-9.672 9.6629-14.998 22.5078-14.996 36.1674.002 13.6523 5.328 26.4883 14.996 36.1413 9.67 9.661 22.522 14.981 36.193 14.981 10.233 0 20.006-2.981 28.331-8.531l10.04 10.038-2.146 2.146c-.416.416-.65.98-.65 1.568s.233 1.153.65 1.568l36.93 36.886c2.609 2.614 6.092 4.053 9.804 4.053 3.713 0 7.196-1.439 9.801-4.049 2.611-2.601 4.049-6.078 4.051-9.788.005-3.711-1.431-7.193-4.042-9.801zm-61.316-40.681c-.031.026-.063.053-.094.082l-.064.06c-.014.012-.027.025-.041.038-.026.022-.051.045-.076.068l-.064.059c-.041.036-.082.072-.122.107-.012.011-.023.021-.034.03-.624.55-1.221 1.053-1.806 1.523-.041.033-.082.064-.121.097-.587.467-1.16.897-1.723 1.295-.059.04-.112.086-.166.13-7.868 5.629-17.269 8.666-27.137 8.666-12.487-.001-24.226-4.86-33.059-13.683-8.829-8.816-13.692-20.536-13.694-33.0046-.003-12.4726 4.862-24.2028 13.695-33.0275 8.829-8.8234 20.57-13.6831 33.054-13.6831 12.486 0 24.225 4.8597 33.056 13.6831 8.829 8.8235 13.692 20.5503 13.692 33.0217 0 12.4604-4.855 24.1744-13.67 32.9894l-.077.073c-.015.013-.028.027-.042.039l-.168.168c-.383.377-.77.744-1.162 1.105zm.499 5.405c.018-.014.037-.03.055-.045.63-.507 1.251-1.031 1.861-1.569l.031-.025c.043-.034.084-.07.124-.108l.171-.155c.006-.004.011-.01.017-.015.124-.112.245-.224.369-.338l.582-.534c.052-.044.103-.088.152-.138l.611-.606.163-.16c.035-.035.072-.069.106-.104.043-.043.085-.087.128-.13.568-.567 1.135-1.161 1.696-1.783l9.385 9.375-5.894 5.89zm57.675 51.726c-1.77 1.774-4.139 2.752-6.665 2.752-2.528 0-4.895-.978-6.668-2.753l-35.363-35.322 1.992-1.99c.055-.047.11-.094.162-.146l9.03-9.026c.05-.049.096-.101.139-.154l2.01-2.009 35.371 35.334c1.771 1.769 2.745 4.135 2.743 6.66-.002 2.524-.977 4.884-2.75 6.653z" fill="#505064"/><g stroke="#ffe6a0" stroke-linecap="round" stroke-linejoin="round" stroke-width="5"><path d="m353 177v31h-29"/><path d="m363 187v31h-29"/></g></svg>