<svg fill="none" height="235" viewBox="0 0 380 235" width="380" xmlns="http://www.w3.org/2000/svg"><g fill="#f0f0ff"><path d="m65 117 62.718-51.9615v103.9235z"/><path d="m190.436 117 62.064-51.9615v103.9235z"/><path d="m190.436 117-62.718 51.962v-103.9235z"/><path d="m315 117-62.718 51.962v-103.9235z"/></g><g fill="#505064"><path d="m351.581 98.7468-17.318-9.999 1.25-2.1648c.331-.5741.421-1.2567.249-1.8969-.171-.6403-.59-1.1864-1.164-1.5179l-9.398-5.4257c.766-4.0938-.206-8.3219-2.681-11.6714-2.476-3.3494-6.234-5.5189-10.372-5.9883-4.139-.4693-8.286.8037-11.449 3.5137l-9.397-5.4257c-1.196-.6902-2.725-.2805-3.415.9149l-1.25 2.1649-17.319-9.999c-2.871-1.6528-6.282-2.1-9.482-1.2432-3.201.8583-5.931 2.9509-7.591 5.8181l-54.995 95.2535c-1.652 2.871-2.1 6.282-1.243 9.482.859 3.201 2.951 5.931 5.818 7.591l82.264 47.495c2.872 1.653 6.282 2.1 9.483 1.244 3.2-.859 5.93-2.951 7.591-5.818l54.994-95.254c1.653-2.871 2.1-6.282 1.244-9.482-.859-3.201-2.951-5.931-5.819-7.5912zm-52.159 85.3442-10.825-6.25c-1.722-.994-3.77-1.264-5.69-.749-1.921.515-3.559 1.772-4.554 3.494l-6.249 10.824-60.616-34.996 52.495-90.9235 15.154 8.7491-1.25 2.1648c-.331.5741-.421 1.2567-.25 1.8969.172.6403.591 1.1864 1.165 1.5179l43.297 24.9978c.574.331 1.257.421 1.897.249.64-.171 1.186-.59 1.518-1.164l1.25-2.165 15.154 8.749zm-5.561 2.562-15.66 4.196 4.482-7.763c.69-1.196 2.219-1.605 3.415-.915zm-2.895-122.9028 8.875 5.1245c1.03.5942 2.334.382 3.122-.5071 2.053-2.3222 5.066-3.5607 8.158-3.3536 3.092.2066 5.914 1.836 7.639 4.4103 1.726 2.575 2.16 5.8031 1.175 8.7424-.376 1.1269.093 2.3624 1.122 2.9566l8.876 5.1245-7.5 12.9891-38.967-22.4977zm5.866 144.8238c-.994 1.722-2.633 2.98-4.553 3.494-1.921.514-3.969.245-5.691-.75l-82.264-47.495c-1.722-.994-2.98-2.632-3.494-4.553-.515-1.921-.245-3.969.749-5.691l54.994-95.2528c.995-1.7222 2.633-2.9799 4.554-3.4943 1.921-.5145 3.968-.2447 5.69.7494l17.319 9.999-2.5 4.3297-17.318-9.999c-1.196-.6902-2.725-.2805-3.415.915l-54.994 95.253c-.332.574-.422 1.257-.25 1.897.171.64.59 1.186 1.165 1.518l64.945 37.496c.574.331 1.256.42 1.897.25l27.317-7.32c.288-.08.559-.21.8-.385.068-.049.124-.105.188-.16.166-.146.313-.313.436-.497.027-.046.077-.072.103-.118l44.995-77.934c.332-.574.422-1.257.25-1.897-.171-.64-.59-1.186-1.165-1.518l-17.327-10.0037 2.5-4.3297 17.319 9.9994c1.722.994 2.979 2.632 3.494 4.553.514 1.921.245 3.969-.75 5.691z"/><path d="m314.779 77.4991c-1.38 2.391-4.438 3.2104-6.829 1.8299-2.391-1.3804-3.211-4.4384-1.83-6.8294 1.38-2.391 4.438-3.2104 6.829-1.8299 2.391 1.3804 3.21 4.4384 1.83 6.8294z"/><path d="m265.723 92.4734-2.165-1.2499c-1.195-.6902-2.724-.2805-3.414.915-.691 1.1955-.281 2.7245.915 3.4147l2.164 1.2499c1.196.6902 2.725.2805 3.415-.915s.281-2.7245-.915-3.4147z"/><path d="m270.968 98.388c-.332.5741-.422 1.2566-.25 1.897.172.64.591 1.186 1.165 1.518l45.462 26.247c1.195.69 2.724.281 3.414-.915.691-1.195.281-2.724-.915-3.415l-45.461-26.247c-1.196-.6902-2.725-.2805-3.415.915z"/><path d="m258.224 105.462-2.165-1.25c-1.195-.69-2.724-.28-3.415.915-.69 1.196-.28 2.725.915 3.415l2.165 1.25c1.196.69 2.725.28 3.415-.915.69-1.196.28-2.725-.915-3.415z"/><path d="m312.345 136.709-45.462-26.247c-1.195-.69-2.724-.281-3.414.915-.691 1.195-.281 2.724.915 3.414l45.461 26.248c1.196.69 2.725.28 3.415-.915.69-1.196.281-2.725-.915-3.415z"/><path d="m250.725 118.451-2.165-1.249c-1.196-.691-2.725-.281-3.415.915-.69 1.195-.28 2.724.915 3.414l2.165 1.25c1.195.69 2.724.281 3.415-.915.69-1.195.28-2.724-.915-3.415z"/><path d="m304.846 149.698-45.462-26.247c-1.195-.69-2.724-.28-3.415.915-.69 1.196-.28 2.725.915 3.415l45.462 26.247c1.196.69 2.725.281 3.415-.915.69-1.195.28-2.724-.915-3.415z"/><path d="m243.225 131.441-2.164-1.25c-1.196-.69-2.725-.281-3.415.915-.69 1.195-.281 2.724.915 3.414l2.165 1.25c1.195.691 2.724.281 3.414-.915.691-1.195.281-2.724-.915-3.414z"/><path d="m297.347 162.687-45.462-26.247c-1.196-.69-2.725-.281-3.415.915-.69 1.195-.28 2.724.915 3.415l45.462 26.247c1.195.69 2.724.28 3.415-.915.69-1.196.28-2.725-.915-3.415z"/><path d="m235.726 144.429-2.165-1.249c-1.195-.691-2.724-.281-3.414.915-.691 1.195-.281 2.724.915 3.414l2.164 1.25c1.196.69 2.725.281 3.415-.915.69-1.195.281-2.724-.915-3.415z"/><path d="m279.023 169.427-34.637-19.998c-1.196-.69-2.725-.28-3.415.915-.69 1.196-.281 2.725.915 3.415l34.637 19.998c1.196.69 2.725.28 3.415-.915.69-1.196.281-2.725-.915-3.415z"/></g><path d="m233.66 53.5069 15.5-26.8467 25.115 14.5" stroke="#ffe6a0" stroke-linecap="round" stroke-linejoin="round" stroke-width="5"/><path d="m230 39.8468 15.5-26.8468 25.115 14.5" stroke="#ffe6a0" stroke-linecap="round" stroke-linejoin="round" stroke-width="5"/></svg>