<svg fill="none" height="235" viewBox="0 0 380 235" width="380" xmlns="http://www.w3.org/2000/svg"><path d="m65 117 62.718-51.9615v103.9235z" fill="#f0f0ff"/><path d="m190.436 117 62.064-51.9615v103.9235z" fill="#f0f0ff"/><path d="m190.436 117-62.718 51.962v-103.9235z" fill="#5050e1"/><path d="m315 117-62.718 51.962v-103.9235z" fill="#f0f0ff"/><g clip-rule="evenodd" fill="#505064" fill-rule="evenodd"><path d="m219.03 91.2362c-4.169-.1993-8.28-1.8917-11.461-5.0721-6.788-6.7881-6.788-17.8066 0-24.5947s17.807-6.7881 24.595 0c3.18 3.1804 4.873 7.2922 5.072 11.4606 20.859-13.9714 47.949-14.7898 69.536-2.4454l4.097-4.097c4.075-4.0756 10.681-4.0756 14.757 0l9.838 9.8383c4.076 4.0756 4.076 10.6817 0 14.7572l-4.097 4.097c14.43 25.2369 10.874 57.9919-10.661 79.5259-21.535 21.535-54.29 25.091-79.526 10.661l-4.097 4.097c-4.076 4.076-10.682 4.076-14.757 0l-9.839-9.838c-4.075-4.075-4.075-10.682 0-14.757l4.097-4.097c-12.344-21.588-11.527-48.677 2.446-69.5358zm13.134-5.0721c23.078-23.0781 60.546-23.0766 83.625.0021 23.078 23.0788 23.077 60.5448 0 83.6228-23.078 23.077-60.545 23.077-83.623 0-23.077-23.078-23.079-60.547-.002-83.6249zm-11.715 80.5849-3.04 3.039c-1.358 1.358-1.358 3.562 0 4.919l9.838 9.838c1.358 1.358 3.562 1.358 4.92 0l3.039-3.039c-2.787-2.024-5.451-4.29-7.959-6.798-2.509-2.509-4.774-5.173-6.798-7.959zm92.302-92.3021c2.786 2.0242 5.45 4.2889 7.959 6.7981 2.508 2.5082 4.774 5.1724 6.798 7.9591l3.039-3.0396c1.358-1.3579 1.358-3.5616 0-4.9196l-9.838-9.8384c-1.357-1.3571-3.561-1.3571-4.919.0009zm-100.26-7.9604c4.073-4.073 10.684-4.073 14.757 0s4.073 10.6842 0 14.7572c-4.073 4.0729-10.684 4.0729-14.757 0-4.073-4.073-4.073-10.6842 0-14.7572z"/><path d="m281.14 158.128c2.92-7.785 6.776-18.066 9.017-24.045 1.478-3.938 1.478-8.276 0-12.215-2.241-5.977-6.097-16.259-9.017-24.0436-1.119-2.9885-3.977-4.9657-7.164-4.9658-3.189 0-6.045 1.9772-7.165 4.9658-2.919 7.7846-6.776 18.0656-9.017 24.0446-1.478 3.937-1.477 8.276 0 12.214 2.242 5.979 6.097 16.26 9.017 24.044 1.119 2.989 3.977 4.966 7.164 4.966 3.189 0 6.045-1.977 7.165-4.965zm2.505-26.49-9.02 24.048c-.101.272-.358.452-.65.452-.29 0-.548-.18-.649-.453l-9.019-24.047c-.885-2.361-.885-4.963 0-7.324l9.02-24.047c.101-.2734.358-.4521.649-.453.29 0 .549.1796.649.453l9.019 24.046c.886 2.362.886 4.964.001 7.325z"/><path d="m276.437 125.517c1.358 1.358 1.357 3.561-.001 4.919-1.358 1.357-3.56 1.358-4.918 0-1.359-1.358-1.358-3.561 0-4.919s3.561-1.359 4.919 0z"/><path d="m237.084 91.0846c-20.362 20.3624-20.362 53.4234 0 73.7854s53.423 20.363 73.786 0c20.363-20.362 20.362-53.423 0-73.7854-20.363-20.3628-53.423-20.3628-73.786 0zm7.472 2.552 7.285 7.2854c1.358 1.358 1.358 3.562 0 4.92-1.357 1.358-3.561 1.358-4.919 0l-7.286-7.2858c-14.491 16.8828-14.492 41.9608.002 58.8408l7.285-7.285c1.358-1.358 3.562-1.358 4.92 0 1.357 1.358 1.357 3.561-.001 4.919l-7.285 7.285c16.882 14.492 41.96 14.493 58.841.002l-7.285-7.286c-1.358-1.357-1.358-3.56 0-4.918s3.562-1.358 4.919-.001l7.286 7.285c14.491-16.882 14.492-41.96-.002-58.8406l-7.285 7.2846c-1.358 1.358-3.562 1.358-4.919.001-1.358-1.358-1.358-3.562 0-4.92l7.285-7.2843c-16.882-14.492-41.96-14.4926-58.841-.0021z"/></g><g stroke="#ffe6a0" stroke-linecap="round" stroke-linejoin="round" stroke-width="5"><path d="m221 212h-31v-29"/><path d="m211 222h-31v-29"/></g></svg>