<svg fill="none" height="235" viewBox="0 0 380 235" width="380" xmlns="http://www.w3.org/2000/svg"><path d="m95.2965 73.0004c-31.0527 0-57.72 19.002-69.006 46.1076-.4927 1.007-.5479 2.172-.1529 3.22.3964 1.047 1.2076 1.885 2.2411 2.314 1.0349.431 2.2015.414 3.2222-.046 1.0221-.459 1.8079-1.32 2.1731-2.379 10.0603-24.1664 33.7865-41.099 61.5219-41.099 36.5541 0 66.1831 29.457 66.6611 66.088l-9.197-10.211c-1.506-1.664-4.075-1.793-5.74-.286-1.664 1.506-1.791 4.077-.285 5.741l15.158 16.871c.77.852 1.865 1.338 3.013 1.338s2.242-.486 3.013-1.338l15.602-17.062c1.103-1.166 1.418-2.872.8-4.352-.617-1.483-2.05-2.461-3.654-2.498-1.19-.012-2.327.497-3.107 1.396l-7.611 8.245c-1.62-39.986-34.423-72.05-74.6528-72.05zm-70.3361 62.4746c-1.0476.075-2.0245.553-2.7281 1.333l-15.22191 16.933c-1.4766 1.684-1.31662 4.243.36101 5.728 1.67622 1.484 4.2371 1.334 5.7281-.337l7.2939-8.117c1.546 39.762 34.2083 71.985 74.841 71.985 31.3316 0 58.1046-19.288 69.3246-46.235.54-.985.589-2.13.135-3.148-.455-1.02-1.369-1.815-2.516-2.188-1.145-.373-2.412-.287-3.484.235-1.072.523-1.845 1.432-2.126 2.501-10.127 24.323-33.876 41.16-61.3339 41.16-36.0472 0-65.7042-29.161-66.4037-65.896l9.069 9.895c.6866.915 1.73 1.499 2.8697 1.605 1.141.106 2.2736-.273 3.1188-1.046s1.3237-1.868 1.3181-3.013c-.0043-1.145-.4927-2.235-1.345-3.001l-15.6028-17.061c-.8353-.929-2.0514-1.42-3.2972-1.332z" fill="#505064"/><g clip-rule="evenodd" fill-rule="evenodd"><path d="m315 117-62.5 51.781v.181l-.108-.091-.11.091v-.183l-61.846-51.779-62.718 51.962-62.718-51.962 62.718-51.9613 62.718 51.9613 61.846-51.7791v-.1823l.11.0907.108-.0907v.1804z" fill="#5050e1"/><path d="m168.788 134.257c-5.084-28.626-26.326-51.7021-53.912-59.257l-7.876 6.5251c28.929 5.1602 51.372 29.0229 54.524 58.7499zm-10.3 8.534-5.787-6.426c-1.506-1.663-4.076-1.792-5.741-.285-1.663 1.506-1.79 4.077-.284 5.741l5.54 6.166z" fill="#f0f0ff"/></g></svg>