<svg fill="none" height="400" viewBox="0 0 400 400" width="400" xmlns="http://www.w3.org/2000/svg"><path d="m317.024 174.883h-.006-.018c-5.82 0-11.403 2.315-15.518 6.429-4.115 4.115-6.425 9.699-6.425 15.518v139.608c0 4.496-1.787 8.805-4.965 11.982-3.177 3.178-7.486 4.965-11.982 4.965h-213.8833c-4.4958 0-8.8048-1.787-11.9822-4.965-3.1775-3.177-4.9644-7.486-4.9644-11.982v-213.883c0-4.496 1.7869-8.805 4.9644-11.982 3.1774-3.178 7.4867-4.965 11.9822-4.965h139.6133.003c7.838-.001 15.082-4.181 19.001-10.9696 3.92-6.7891 3.92-15.1574 0-21.9468-3.92-6.7897-11.165-10.9699-19.004-10.9699h-139.6082c-16.1347 0-31.608 6.4092-43.0175 17.8153l-.0006.0005c-11.40607 11.4096-17.81526 26.8825-17.81526 43.0175v213.883c0 16.135 6.40919 31.608 17.81526 43.018h.0006c11.4095 11.406 26.8828 17.816 43.0175 17.816h213.8832c16.135 0 31.608-6.41 43.018-17.816 11.406-11.41 17.815-26.883 17.815-43.018v-139.608c0-5.819-2.31-11.403-6.425-15.518-4.11-4.11-9.686-6.424-15.499-6.429zm-159.443 99.345 195.809-195.9961v63.7651c0 7.84 4.18 15.084 10.97 19.005 6.789 3.919 15.157 3.919 21.946 0 6.79-3.921 10.97-11.165 10.97-19.005v-116.6663-.0144-.0144c-.033-2.864-.625-5.6926-1.75-8.3289-2.226-5.3515-6.481-9.60619-11.832-11.83322-2.637-1.12567-5.467-1.71923-8.332-1.75228l-.014-.00017h-.015-116.667c-7.839 0-15.084 4.18052-19.004 10.96997-3.92 6.7891-3.92 15.1574 0 21.9467 3.92 6.7898 11.165 10.97 19.004 10.97h63.766l-195.996 195.809c-.001.001-.003.002-.004.003-4.152 4.121-6.487 9.726-6.487 15.576 0 5.849 2.334 11.453 6.484 15.573 4.121 4.15 9.724 6.484 15.572 6.484 5.851 0 11.456-2.335 15.577-6.488.001-.001.002-.002.003-.003z" fill="#2828d7" stroke="#2828d7" stroke-width="5"/></svg>