<svg width="488" height="488" viewBox="0 0 488 488" fill="none" xmlns="http://www.w3.org/2000/svg">
<path d="M71.7686 255.609L244 83.8272L416.231 255.609C422.927 262.287 433.775 262.287 440.47 255.609C447.177 248.92 447.177 238.067 440.47 231.378L256.119 47.5086C249.424 40.8305 238.576 40.8305 231.881 47.5086L47.5298 231.378C40.8234 238.067 40.8234 248.92 47.5298 255.609C54.2254 262.287 65.073 262.287 71.7686 255.609ZM133.678 279.948C133.678 270.472 125.982 262.824 116.529 262.824C107.076 262.824 99.3796 270.472 99.3796 279.948V428.376C99.3796 437.852 107.076 445.5 116.529 445.5H198.801C208.254 445.5 215.95 437.852 215.95 428.376V324.946H278.652V428.376C278.652 437.852 286.348 445.5 295.801 445.5H382.644C392.097 445.5 399.793 437.852 399.793 428.376V279.948C399.793 270.472 392.097 262.824 382.644 262.824C373.191 262.824 365.495 270.472 365.495 279.948V411.252H312.95V307.822C312.95 298.347 305.254 290.698 295.801 290.698H198.801C189.348 290.698 181.652 298.347 181.652 307.822V411.252H133.678V279.948Z" fill="#2828D7" stroke="#2828D7" stroke-width="15" stroke-linecap="round" stroke-linejoin="round"/>
</svg>
