<svg fill="none" height="414" viewBox="0 0 371 414" width="371" xmlns="http://www.w3.org/2000/svg"><path d="m250.11 189.723h-155.1647l.0005-43.004c30.9542-7.723 53.8882-35.704 53.8882-69.0533 0-39.3045-31.861-71.1657-71.1655-71.1657-39.3042 0-71.1685 31.8608-71.1685 71.1657 0 33.3493 22.9335 61.3303 53.8911 69.0533v120.562c-30.957 7.723-53.8911 35.704-53.8911 69.053 0 39.305 31.8643 71.166 71.1685 71.166 39.3045 0 71.1655-31.861 71.1655-71.166 0-33.349-22.933-61.33-53.8881-69.053v-43.004h155.1641c33.353 0 60.389-27.035 60.389-60.388v-17.169c30.957-7.723 53.891-35.705 53.891-69.0536 0-39.3049-31.865-71.16571-71.169-71.16571s-71.166 31.86121-71.166 71.16571c0 33.3486 22.934 61.3306 53.889 69.0536v17.169c0 14.267-11.567 25.834-25.834 25.834zm-209.0538-112.0593c0-20.2197 16.3903-36.6117 36.6116-36.6117 20.2194 0 36.6112 16.3928 36.6112 36.6117 0 20.2219-16.392 36.6113-36.6112 36.6113-20.2222 0-36.6116-16.3897-36.6116-36.6113zm215.5548 0c0-20.2195 16.393-36.6117 36.612-36.6117 20.222 0 36.611 16.3925 36.611 36.6117 0 20.2222-16.39 36.6113-36.611 36.6113-20.22 0-36.612-16.39-36.612-36.6113zm-215.5548 258.6713c0-20.222 16.39-36.612 36.6116-36.612 20.2197 0 36.6112 16.391 36.6112 36.612 0 20.219-16.3923 36.612-36.6112 36.612-20.2219 0-36.6116-16.393-36.6116-36.612z" fill="#2828d7" stroke="#2828d7" stroke-width="13"/></svg>