<svg width="371" height="414" viewBox="0 0 371 414" fill="none" xmlns="http://www.w3.org/2000/svg">
<path d="M250.11 189.723H94.9453L94.9458 146.719C125.9 138.996 148.834 111.015 148.834 77.6657C148.834 38.3612 116.973 6.5 77.6685 6.5C38.3643 6.5 6.5 38.3608 6.5 77.6657C6.5 111.015 29.4335 138.996 60.3911 146.719V267.281C29.4341 275.004 6.5 302.985 6.5 336.334C6.5 375.639 38.3643 407.5 77.6685 407.5C116.973 407.5 148.834 375.639 148.834 336.334C148.834 302.985 125.901 275.004 94.9459 267.281V224.277H250.11C283.463 224.277 310.499 197.242 310.499 163.889V146.72C341.456 138.997 364.39 111.015 364.39 77.6664C364.39 38.3615 332.525 6.50069 293.221 6.50069C253.917 6.50069 222.055 38.3619 222.055 77.6664C222.055 111.015 244.989 138.997 275.944 146.72V163.889C275.944 178.156 264.377 189.723 250.11 189.723ZM41.0562 77.6637C41.0562 57.444 57.4465 41.052 77.6678 41.052C97.8872 41.052 114.279 57.4448 114.279 77.6637C114.279 97.8856 97.887 114.275 77.6678 114.275C57.4456 114.275 41.0562 97.8853 41.0562 77.6637ZM256.611 77.6637C256.611 57.4442 273.004 41.052 293.223 41.052C313.445 41.052 329.834 57.4445 329.834 77.6637C329.834 97.8859 313.444 114.275 293.223 114.275C273.003 114.275 256.611 97.885 256.611 77.6637ZM41.0562 336.335C41.0562 316.113 57.4462 299.723 77.6678 299.723C97.8875 299.723 114.279 316.114 114.279 336.335C114.279 356.554 97.8867 372.947 77.6678 372.947C57.4459 372.947 41.0562 356.554 41.0562 336.335Z" fill="#2828D7" stroke="#2828D7" stroke-width="13"/>
</svg>
